<?xml version="1.0" standalone="no"?>
<!DOCTYPE svg PUBLIC "-//W3C//DTD SVG 20010904//EN"
 "http://www.w3.org/TR/2001/REC-SVG-20010904/DTD/svg10.dtd">
<svg version="1.0" xmlns="http://www.w3.org/2000/svg"
 width="192.000000pt" height="192.000000pt" viewBox="0 0 192.000000 192.000000"
 preserveAspectRatio="xMidYMid meet">

<g transform="translate(0.000000,192.000000) scale(0.100000,-0.100000)"
fill="#000000" stroke="none">
<path d="M1082 1618 c-34 -101 -62 -186 -62 -190 0 -5 22 -8 49 -8 l50 0 27
85 c27 81 44 107 44 67 0 -11 -9 -45 -20 -77 -11 -32 -20 -62 -20 -67 0 -4 20
-8 44 -8 l45 0 28 86 c26 80 27 87 11 98 -16 12 -16 14 7 24 29 13 55 70 55
118 0 44 -24 54 -124 54 l-73 0 -61 -182z m160 97 c-6 -34 -22 -65 -32 -65
-13 0 -13 4 2 52 11 37 36 49 30 13z"/>
<path d="M1360 1651 c-57 -165 -61 -207 -20 -229 32 -16 110 -9 145 14 35 23
50 54 106 222 l48 143 -52 -3 -52 -3 -53 -155 c-50 -145 -72 -195 -72 -159 0
8 23 82 50 164 28 82 50 151 50 152 0 2 -22 3 -49 3 l-49 0 -52 -149z"/>
<path d="M1621 1618 c-34 -101 -61 -187 -61 -191 0 -5 19 -7 42 -5 40 3 42 5
57 50 23 68 31 69 31 5 l0 -57 44 0 44 0 38 113 c20 61 50 147 65 190 l28 77
-43 0 -44 0 -24 -67 -23 -68 -3 68 -3 67 -43 0 -43 0 -62 -182z"/>
<path d="M70 1741 c0 -5 5 -13 10 -16 6 -3 10 -2 10 4 0 5 -4 13 -10 16 -5 3
-10 2 -10 -4z"/>
<path d="M100 1720 c0 -5 7 -7 15 -4 8 4 15 8 15 10 0 2 -7 4 -15 4 -8 0 -15
-4 -15 -10z"/>
<path d="M65 1700 c3 -5 8 -10 11 -10 2 0 4 5 4 10 0 6 -5 10 -11 10 -5 0 -7
-4 -4 -10z"/>
<path d="M180 1680 c-8 -5 -10 -10 -5 -10 6 0 17 5 25 10 8 5 11 10 5 10 -5 0
-17 -5 -25 -10z"/>
<path d="M120 1654 c0 -8 5 -12 10 -9 6 3 10 10 10 16 0 5 -4 9 -10 9 -5 0
-10 -7 -10 -16z"/>
<path d="M0 1613 c0 -5 11 -16 25 -23 14 -7 25 -19 25 -26 0 -7 9 -16 20 -19
21 -7 27 -48 11 -73 -6 -10 -10 -10 -21 3 -7 9 -19 14 -27 11 -7 -3 -13 -1
-13 4 0 6 -4 10 -10 10 -6 0 -10 -120 -10 -340 l0 -340 120 0 c94 0 128 -4
153 -17 44 -23 123 -22 171 1 35 18 44 18 102 6 42 -8 94 -10 147 -6 61 5 100
3 152 -9 44 -10 86 -14 113 -10 24 4 61 3 83 0 33 -6 39 -11 39 -31 0 -14 -6
-24 -14 -24 -8 0 -22 -22 -32 -52 -9 -29 -37 -98 -61 -153 -46 -102 -85 -206
-80 -211 3 -4 285 -5 705 -5 l322 1 0 251 c0 175 -3 248 -11 244 -6 -4 -8 -13
-5 -20 6 -18 -15 -25 -30 -11 -6 7 -10 23 -9 36 1 13 -11 49 -27 78 -15 30
-28 64 -29 76 -1 13 -6 6 -14 -20 -7 -22 -23 -60 -36 -85 -13 -24 -22 -47 -21
-51 4 -15 -19 -8 -24 7 -10 25 -20 17 -34 -25 -7 -22 -17 -40 -22 -40 -5 0 -7
4 -3 9 3 5 1 12 -4 16 -6 3 -8 12 -5 19 3 7 -13 35 -36 62 -22 27 -43 60 -47
74 -3 14 -10 31 -16 38 -5 6 -6 12 -2 12 4 0 -4 13 -18 29 -13 16 -30 49 -37
73 l-13 44 -33 -65 c-18 -36 -37 -78 -43 -93 -6 -16 -16 -28 -22 -28 -8 0 -8
-5 1 -15 11 -13 11 -20 0 -40 -14 -25 -30 -33 -30 -15 0 6 -6 10 -13 10 -7 0
-18 9 -25 20 -11 19 -9 22 22 35 33 14 57 35 39 35 -4 0 -23 -4 -40 -9 -22 -7
-35 -6 -39 1 -5 7 -12 4 -21 -7 -12 -18 -13 -17 -13 5 0 15 15 38 42 63 35 33
38 38 18 32 -14 -5 -33 -9 -43 -10 -10 -1 -22 -7 -27 -14 -6 -11 -14 -11 -39
2 -33 16 -76 13 -49 -4 10 -6 10 -11 1 -20 -13 -13 -36 -3 -27 12 3 6 -6 22
-20 36 -14 14 -26 30 -26 35 0 6 -6 24 -14 41 -8 18 -17 39 -19 47 -3 8 -6 4
-6 -11 -1 -23 -17 -49 -31 -49 -4 0 -13 12 -20 28 -12 27 -12 27 -21 4 -7 -18
-16 -22 -54 -22 -43 0 -45 1 -45 30 0 20 4 28 13 24 8 -3 24 4 37 14 33 27 21
68 -23 80 -33 9 -47 7 -47 -8 0 -5 12 -10 27 -12 41 -5 40 -31 -2 -47 -34 -12
-44 -25 -26 -35 4 -3 11 -19 14 -36 6 -26 11 -30 39 -30 87 -1 158 -69 158
-151 0 -142 -187 -205 -269 -91 -45 63 -39 132 16 193 40 44 39 55 -2 39 -20
-8 -30 -8 -35 0 -4 6 -38 -20 -79 -61 -50 -48 -78 -68 -89 -64 -12 4 5 27 71
93 48 48 87 93 87 100 0 8 -17 12 -52 11 -42 0 -48 -2 -30 -9 27 -11 27 -11 2
-60 -22 -43 -36 -55 -45 -41 -3 6 -12 8 -21 4 -12 -4 -12 -8 -2 -21 11 -13 10
-14 -1 -11 -22 8 -24 25 -5 44 17 16 17 18 1 30 -9 6 -21 24 -26 38 -7 17 -18
27 -31 27 -11 0 -20 -1 -20 -2 0 -2 11 -44 23 -95 19 -75 21 -93 10 -97 -12
-5 -33 29 -33 52 0 4 -5 24 -11 45 -9 32 -13 36 -25 26 -31 -25 -34 -45 -14
-85 11 -21 20 -44 20 -51 0 -7 7 -13 15 -13 8 0 15 -7 15 -15 0 -8 -6 -15 -14
-15 -8 0 -23 -17 -33 -37 -73 -142 -283 -91 -283 67 0 98 92 167 189 141 l46
-12 31 36 32 36 -14 52 c-18 66 -18 67 5 67 14 0 21 -10 25 -35 5 -26 12 -35
26 -35 19 0 19 0 0 33 -24 39 -25 47 -5 47 8 0 15 7 15 15 0 9 -9 15 -25 15
-26 0 -44 24 -46 62 -1 15 -4 11 -8 -12 -4 -22 -14 -39 -29 -46 -35 -17 -37
-22 -17 -44 15 -16 15 -20 3 -20 -17 0 -50 33 -46 46 1 5 -3 19 -10 30 -6 12
-8 24 -5 28 4 3 -3 16 -14 29 -33 35 -93 163 -93 197 0 18 -4 29 -10 25 -5 -3
-10 -21 -10 -39 0 -23 -9 -40 -32 -62 -20 -19 -29 -23 -25 -11 5 13 1 17 -17
17 -17 0 -26 -7 -30 -25 -4 -14 -11 -25 -16 -25 -14 0 -12 17 3 24 6 3 2 3
-10 0 -20 -5 -23 -1 -23 26 0 18 4 29 10 25 6 -3 13 1 16 9 3 9 9 14 13 12 3
-2 22 4 41 15 33 17 33 18 10 19 -14 0 -38 -7 -54 -15 -16 -9 -30 -14 -31 -13
-1 2 -9 14 -18 28 -9 13 -17 19 -17 12 0 -13 -13 -11 -57 5 -7 3 -13 1 -13 -4z
m114 -148 c3 -8 1 -15 -4 -15 -6 0 -10 7 -10 15 0 8 2 15 4 15 2 0 6 -7 10
-15z m96 -12 c0 -20 -41 -67 -67 -78 -18 -8 -33 -21 -33 -30 0 -9 -4 -13 -10
-10 -5 3 -10 17 -10 30 0 26 25 45 60 45 12 0 19 4 15 10 -9 14 17 49 32 43 7
-3 13 -7 13 -10z m-163 -14 c-2 -9 4 -21 14 -28 12 -7 19 -23 19 -42 0 -26 -2
-29 -14 -19 -8 6 -13 17 -10 23 2 7 -7 28 -21 47 -30 41 -30 39 -4 37 13 -1
19 -7 16 -18z m1183 -442 c14 -11 16 -19 11 -44 -2 -11 -41 30 -41 44 0 16 10
16 30 0z"/>
<path d="M780 1324 c0 -14 3 -14 15 -4 8 7 15 14 15 16 0 2 -7 4 -15 4 -8 0
-15 -7 -15 -16z"/>
<path d="M665 1300 c3 -6 19 -17 36 -25 21 -11 29 -23 29 -43 0 -18 3 -23 9
-14 4 7 17 14 29 15 11 0 26 12 32 26 10 22 10 23 -5 11 -15 -12 -19 -11 -35
9 -11 16 -19 20 -22 11 -3 -10 -11 -9 -35 4 -37 18 -47 20 -38 6z"/>
<path d="M805 1140 c-15 -17 -16 -20 -3 -20 9 0 18 9 21 20 3 11 4 20 3 20 -2
0 -11 -9 -21 -20z"/>
<path d="M1255 1150 c-3 -5 -1 -10 4 -10 6 0 11 5 11 10 0 6 -2 10 -4 10 -3 0
-8 -4 -11 -10z"/>
<path d="M1150 1106 c0 -2 9 -6 20 -9 11 -3 18 -1 14 4 -5 9 -34 13 -34 5z"/>
<path d="M1206 1091 c-3 -5 1 -11 9 -15 8 -3 15 -1 15 4 0 13 -18 22 -24 11z"/>
<path d="M282 1042 c-35 -33 -46 -63 -38 -107 7 -37 48 -83 83 -91 41 -11 90
5 117 37 14 17 26 37 26 45 0 20 -51 18 -89 -3 -30 -18 -31 -17 -53 4 -19 19
-20 26 -10 48 7 15 20 25 32 25 27 0 73 52 57 62 -7 4 -31 8 -53 8 -32 0 -49
-7 -72 -28z"/>
<path d="M906 1045 c4 -11 13 -35 20 -54 14 -33 11 -51 -6 -51 -5 0 -19 27
-31 59 -23 65 -39 70 -64 20 -20 -37 -19 -99 1 -127 34 -49 104 -65 155 -35
92 54 65 201 -38 206 -39 2 -42 1 -37 -18z m69 -15 c8 -13 -5 -13 -25 0 -13 8
-13 10 2 10 9 0 20 -4 23 -10z"/>
<path d="M420 1010 c-12 -17 -21 -33 -19 -35 2 -2 20 -5 39 -6 30 -3 35 -1 32
16 -2 10 -10 28 -17 38 -12 17 -14 16 -35 -13z"/>
<path d="M538 728 c25 -25 12 -35 -50 -42 -34 -4 -69 -11 -78 -16 -11 -6 -25
-45 -40 -107 -16 -68 -29 -103 -44 -114 -12 -9 -34 -42 -51 -73 -31 -58 -55
-72 -55 -33 -1 20 -2 19 -15 -8 -14 -28 -15 -24 -10 57 6 81 20 153 40 203 7
17 6 18 -6 8 -8 -6 -39 -13 -69 -15 l-55 -3 -13 -65 c-10 -53 -20 -72 -52
-105 -35 -35 -40 -47 -40 -86 l0 -45 113 3 c61 2 121 6 132 8 13 3 36 33 63
82 l43 78 -5 -77 -6 -78 118 1 c99 1 215 14 160 18 -16 1 -18 13 -18 97 0 85
-2 95 -15 84 -22 -18 -20 8 9 111 l23 87 -37 21 c-42 23 -60 27 -42 9z"/>
<path d="M814 722 c-6 -4 -14 -23 -18 -42 l-7 -35 15 33 c8 18 25 36 38 42 21
8 21 9 3 9 -11 0 -25 -3 -31 -7z"/>
<path d="M781 633 c-1 -6 -4 -20 -7 -30 -5 -17 -5 -17 6 0 6 10 9 23 6 30 -3
9 -5 9 -5 0z"/>
<path d="M3 555 c0 -22 2 -30 4 -17 2 12 2 30 0 40 -3 9 -5 -1 -4 -23z"/>
<path d="M721 486 c-12 -26 -30 -59 -41 -73 -12 -16 -20 -41 -20 -64 l0 -39
74 0 74 0 -14 43 c-8 23 -23 74 -33 112 l-19 70 -21 -49z"/>
<path d="M0 138 c0 -24 3 -25 77 -32 119 -10 291 -6 373 8 95 17 42 20 -85 5
-51 -6 -120 -7 -160 -3 l-70 8 85 12 c68 9 76 12 39 13 -25 0 -94 4 -152 8
l-107 6 0 -25z"/>
<path d="M778 103 c12 -2 32 -2 45 0 12 2 2 4 -23 4 -25 0 -35 -2 -22 -4z"/>
<path d="M928 93 c12 -2 32 -2 45 0 12 2 2 4 -23 4 -25 0 -35 -2 -22 -4z"/>
<path d="M558 79 c-2 -7 -25 -12 -63 -11 -33 0 -109 -4 -169 -9 -99 -9 -161
-6 -298 16 -27 4 -28 3 -28 -35 l0 -40 960 0 960 0 0 25 c0 19 -5 25 -22 26
-22 1 -22 1 2 10 25 9 10 8 -155 -9 -70 -7 -70 -7 -25 -13 25 -4 7 -4 -40 0
-47 3 -166 6 -265 5 -102 -1 -161 2 -135 6 25 4 34 8 20 9 -14 0 -74 6 -135
13 -108 11 -281 12 -320 2 -17 -4 -18 -3 -5 6 11 9 -7 10 -75 5 -127 -10 -147
-10 -176 -1 -18 5 -28 4 -31 -5z m10 -26 c-10 -2 -26 -2 -35 0 -10 3 -2 5 17
5 19 0 27 -2 18 -5z m-61 -9 c-3 -3 -12 -4 -19 -1 -8 3 -5 6 6 6 11 1 17 -2
13 -5z m1346 -1 c-7 -2 -19 -2 -25 0 -7 3 -2 5 12 5 14 0 19 -2 13 -5z"/>
<path d="M213 63 c9 -2 23 -2 30 0 6 3 -1 5 -18 5 -16 0 -22 -2 -12 -5z"/>
</g>
</svg>
